<svg xmlns="http://www.w3.org/2000/svg" viewBox="0 0 859 1031"><defs><style>.cls-1{opacity:0.22;}.cls-2{fill:#3d3d3d;}</style></defs><title>Asset 1</title><g id="Layer_2" data-name="Layer 2"><g id="Layer_1-2" data-name="Layer 1"><g class="cls-1"><path class="cls-2" d="M429.5.25A429.36,429.36,0,0,1,596.58,825,429.36,429.36,0,0,1,262.42,34,426.6,426.6,0,0,1,429.5.25m0-.25C192.29,0,0,192.29,0,429.5S192.29,859,429.5,859,859,666.71,859,429.5,666.71,0,429.5,0Z"/></g><g class="cls-1"><path class="cls-2" d="M429.5,172.25A427.94,427.94,0,1,1,262.42,206,426.6,426.6,0,0,1,429.5,172.25m0-.25C192.29,172,0,364.29,0,601.5S192.29,1031,429.5,1031,859,838.71,859,601.5,666.71,172,429.5,172Z"/></g></g></g></svg>